# AST/ASF file generated using VICON BodyLanguage
# -----------------------------------------------
:version 1.10
:name VICON
:units
  mass 1.0
  length 0.45
  angle deg
:documentation
   .ast/.asf automatically generated from VICON data using
   VICON BodyBuilder and BodyLanguage model FoxedUp or BRILLIANT.MOD
:root
   order TX TY TZ RX RY RZ
   axis XYZ
   position 0 0 0  
   orientation 0 0 0 
:bonedata
  begin
     id 1 
     name lhipjoint
     direction 0.611804 -0.747784 0.257906 
     length 2.29243 
     axis 0 0 0  XYZ
  end
  begin
     id 2 
     name lfemur
     direction 0.34202 -0.939693 0  
     length 7.31159  
     axis 0 0 20  XYZ
    dof rx ry rz
    limits (-160.0 20.0)
           (-70.0 70.0)
           (-60.0 70.0)
  end
  begin
     id 3 
     name ltibia
     direction 0.34202 -0.939693 0   
     length 7.33391   
     axis 0 0 20   XYZ
    dof rx
    limits (-10.0 170.0)
  end
  begin
     id 4 
     name lfoot
     direction 0.122263 -0.335914 0.933924   
     length 1.76083   
     axis -90 7.62852e-016 20   XYZ
    dof rx rz
    limits (-45.0 90.0)
           (-70.0 20.0)
  end
  begin
     id 5 
     name ltoes
     direction 1.53533e-011 -4.2177e-011 1   
     length 0.879206   
     axis -90 7.62852e-016 20   XYZ
    dof rx
    limits (-90.0 20.0)
  end
  begin
     id 6 
     name rhipjoint
     direction -0.646469 -0.721248 0.248754   
     length 2.37677  
     axis 0 0 0  XYZ 
  end
  begin
     id 7 
     name rfemur
     direction -0.34202 -0.939693 0   
     length 7.18623   
     axis 0 0 -20   XYZ
    dof rx ry rz
    limits (-160.0 20.0)
           (-70.0 70.0)
           (-70.0 60.0)
  end
  begin
     id 8 
     name rtibia
     direction -0.34202 -0.939693 0   
     length 7.36567   
     axis 0 0 -20   XYZ
    dof rx
    limits (-10.0 170.0)
 end
 begin
     id 9 
     name rfoot
     direction -0.126681 -0.348054 0.928876   
     length 1.71902  
     axis -90 -7.62852e-016 -20   XYZ
    dof rx rz
    limits (-45.0 90.0)
           (-20.0 70.0)
  end
  begin
     id 10 
     name rtoes
     direction -1.53551e-011 -4.21898e-011 1   
     length 0.857792   
     axis -90 -7.62852e-016 -20   XYZ
    dof rx
    limits (-90.0 20.0)
  end
  begin
     id 11 
     name lowerback
     direction 0.0106509 0.999778 0.0181844   
     length 2.07668   
     axis 0 0 0   XYZ
    dof rx ry rz
    limits (-20.0 45.0)
           (-30.0 30.0)
           (-30.0 30.0)
  end
  begin
     id 12 
     name upperback
     direction -0.00456018 0.999989 -0.000590935   
     length 2.08011   
     axis 0 0 0   XYZ
    dof rx ry rz
    limits (-20.0 45.0)
           (-30.0 30.0)
           (-30.0 30.0)
  end
  begin
     id 13 
     name thorax
     direction -0.00910382 0.999916 -0.00923765   
     length 2.07397   
     axis 0 0 0   XYZ
    dof rx ry rz
    limits (-20.0 45.0)
           (-30.0 30.0)
           (-30.0 30.0)
  end
  begin
     id 14 
     name lowerneck
     direction 0.00171967 0.99778 0.0665733   
     length 1.67556   
     axis 0 0 0   XYZ
    dof rx ry rz
    limits (-20.0 45.0)
           (-30.0 30.0)
           (-30.0 30.0)
  end
  begin
     id 15 
     name upperneck
     direction -0.0143166 0.991302 -0.130828   
     length 1.68462   
     axis 0 0 0   XYZ
    dof rx ry rz
    limits (-20.0 45.0)
           (-30.0 30.0)
           (-30.0 30.0)
  end
  begin
     id 16
     name head
     direction -0.00606378 0.998665 -0.0512995  
     length 1.69269  
     axis 0 0 0   XYZ
    dof rx ry rz
    limits (-20.0 45.0)
           (-30.0 30.0)
           (-30.0 30.0)
  end
  begin
     id 17 
     name lclavicle
     direction 0.9638 0.179341 0.197297  
     length 4.12888  
     axis 0 0 0   XYZ
    dof ry rz
    limits (-20.0 10.0)
           (0.0 20.0)
  end
  begin
     id 18 
     name lhumerus
     direction 1 -4.48972e-011 -2.47351e-027   
     length 5.01834   
     axis -180 -30 -90   XYZ
    dof rx ry rz
    limits (-60.0 90.0)
           (-90.0 90.0)
           (-90.0 90.0)
  end
  begin
     id 19
     name lradius
     direction 1 -4.48965e-011 1.51591e-026   
     length 3.4869   
     axis -180 -30 -90   XYZ
    dof rx
    limits (-10.0 170.0)
  end
  begin
     id 20
     name lwrist
     direction 1 -4.48957e-011 2.70032e-026   
     length 1.74345   
     axis -1.81515e-014 90 90   XYZ
    dof ry
    limits (-180.0 0.0)
 end
  begin
     id 21 
     name lhand
     direction 1 -4.48951e-011 5.40064e-026   
     length 0.76799   
     axis -3.44607e-014 90 90   XYZ
    dof rx rz
    limits (-90.0 90.0)
           (-45.0 45.0)
  end
  begin
     id 22 
     name lfingers
     direction 1 -4.48971e-011 1.08013e-025   
     length 0.619174   
     axis -6.89214e-014 90 90   XYZ
    dof rx
    limits (0.0 90.0)
  end
  begin
     id 23
     name lthumb
     direction 0.707107 -6.34931e-011 0.707107   
     length 0.889013   
     axis -90 45 2.85299e-015   XYZ
    dof rx rz
    limits (-45.0 45.0)
           (-45.0 45.0)
  end
  begin
     id 24 
     name rclavicle
     direction -0.961409 0.252588 0.109054   
     length 4.04305  
     axis 0 0 0   XYZ 
    dof ry rz
    limits (-10.0 20.0)
           (-20.0 0.0)
  end
  begin
     id 25 
     name rhumerus
     direction -1 -4.4897e-011 1.33872e-017  
     length 4.70164   
     axis -180 30 90   XYZ
    dof rx ry rz
    limits (-90.0 60.0)
           (-90.0 90.0)
           (-90.0 90.0)
  end
  begin
     id 26 
     name rradius
     direction -1 -4.48954e-011 1.83844e-026   
     length 3.49911   
     axis -180 30 90   XYZ
    dof rx
    limits (-10.0 170.0)
  end
  begin
     id 27 
     name rwrist
     direction -1 -4.49008e-011 2.70032e-026   
     length 1.74955   
     axis -1.81515e-014 -90 -90   XYZ
    dof ry
    limits (-180.0 0.0)
  end
  begin
     id 28
     name rhand
     direction -1 -4.48916e-011 5.40064e-026   
     length 0.739335   
     axis -3.44607e-014 -90 -90   XYZ
    dof rx rz
    limits (-90.0 90.0)
           (-45.0 45.0)
  end
  begin
     id 29
     name rfingers
     direction -1 -4.48987e-011 1.08013e-025   
     length 0.596071   
     axis -6.89214e-014 -90 -90   XYZ
    dof rx
    limits (0.0 90.0)
  end
  begin
     id 30
     name rthumb
     direction -0.707107 -6.34935e-011 0.707107   
     length 0.855843   
     axis -90 -45 -2.85299e-015   XYZ
    dof rx rz
    limits (-45.0 45.0)
           (-45.0 45.0)
  end
:hierarchy
  begin
    root lhipjoint rhipjoint lowerback
    lhipjoint lfemur
    lfemur ltibia
    ltibia lfoot
    lfoot ltoes
    rhipjoint rfemur
    rfemur rtibia
    rtibia rfoot
    rfoot rtoes
    lowerback upperback
    upperback thorax
    thorax lowerneck lclavicle rclavicle
    lowerneck upperneck
    upperneck head
    lclavicle lhumerus
    lhumerus lradius
    lradius lwrist
    lwrist lhand lthumb
    lhand lfingers
    rclavicle rhumerus
    rhumerus rradius
    rradius rwrist
    rwrist rhand rthumb
    rhand rfingers
  end

#!OML:ASF I:\salsa\salsa 7_09\Patient 1\Session 1\dancermale.ASF
:FULLY-SPECIFIED
:DEGREES
1
root -12.5512 17.49 -0.592794 -95.4829 86.4703 -103.168
lowerback -6.73783 0.635979 4.76812
upperback -0.165128 0.454761 1.4809
thorax 3.63589 0.309354 -1.09871
lowerneck -7.79363 -13.7339 -7.07357
upperneck 13.9746 -18.0041 2.58682
head 6.39227 -8.88694 0.388597
rclavicle -1.03865e-014 3.3197e-014
rhumerus -45.22 16.9051 -110.033
rradius 109.331
rwrist -5.37535
rhand -26.7692 11.2252
rfingers 7.12502
rthumb -0.197143 -18.7545
lclavicle -1.03865e-014 3.3197e-014
lhumerus -37.1463 -48.3489 108.548
lradius 111.475
lwrist 20.8818
lhand -8.32655 41.8903
lfingers 7.12502
lthumb 17.5946 71.1141
rfemur -18.7283 7.82566 17.2024
rtibia 9.65584
rfoot -5.18561 -18.9232
rtoes -6.35994
lfemur -5.27123 0.445746 -14.6181
ltibia 15.2817
lfoot -24.9424 0.104182
ltoes 4.67205
2
root -12.6586 17.4851 -0.663619 -89.6428 87.4526 -97.2234
lowerback -6.45333 0.691424 4.19238
upperback 0.0771785 0.587895 0.921556
thorax 3.7346 0.369247 -1.34347
lowerneck -7.35439 -13.5617 -6.84197
upperneck 12.7958 -17.9078 3.33448
head 5.98756 -8.80359 0.666369
rclavicle -1.16786e-015 6.75868e-015
rhumerus -44.8231 18.7609 -109.967
rradius 109.494
rwrist -6.51385
rhand -28.1438 9.66343
rfingers 7.12502
rthumb -1.52477 -20.3109
lclavicle -1.16786e-015 6.75868e-015
lhumerus -36.7974 -48.4379 107.554
lradius 111.701
lwrist 20.9913
lhand -7.86541 42.4584
lfingers 7.12502
lthumb 18.0383 71.6419
rfemur -19.4746 6.96427 15.9577
rtibia 10.5688
rfoot -6.07906 -18.4459
rtoes -5.40488
lfemur -5.7741 3.97698 -16.1478
ltibia 13.9721
lfoot -22.7155 1.8197
ltoes 15.097
3
root -12.7595 17.4756 -0.725114 -77.1017 88.0994 -84.4426
lowerback -6.134 0.764999 3.79517
upperback 0.381479 0.731494 0.462604
thorax 3.87949 0.439877 -1.58309
lowerneck -6.97738 -13.4194 -6.67854
upperneck 11.6688 -17.8216 4.05836
head 5.61756 -8.73318 0.934551
rclavicle -1.67725e-015 3.47873e-015
rhumerus -44.4262 20.5665 -109.876
rradius 109.728
rwrist -7.63707
rhand -29.2908 8.11194
rfingers 7.12502
rthumb -2.63252 -21.8516
lclavicle -1.67725e-015 3.47873e-015
lhumerus -36.3519 -48.491 106.511
lradius 111.797
lwrist 21.077
lhand -7.18469 42.7941
lfingers 7.12502
lthumb 18.6932 71.9159
rfemur -20.1443 6.34212 15.0846
rtibia 11.5956
rfoot -6.55869 -17.7667
rtoes -7.8425
lfemur -5.64342 4.8874 -17.0622
ltibia 13.5755
lfoot -22.5446 1.05018
ltoes 17.183
4
root -12.8526 17.4665 -0.783064 -61.9795 88.5467 -68.9778
lowerback -5.92238 0.816292 3.61472
upperback 0.782239 0.827562 -0.0455375
thorax 4.18723 0.497132 -1.9984
lowerneck -6.63139 -13.1603 -6.7114
upperneck 10.7863 -17.5871 5.07684
head 5.36849 -8.57899 1.31272
rclavicle -6.90156e-015 -1.30204e-014
rhumerus -43.5555 24.2083 -109.322
rradius 110.299
rwrist -10.198
rhand -31.6092 5.73169
rfingers 7.12502
rthumb -4.8714 -24.1923
lclavicle -6.90156e-015 -1.30204e-014
lhumerus -35.7301 -48.6013 105.263
lradius 111.843
lwrist 21.1808
lhand -6.16607 43.0701
lfingers 7.12502
lthumb 19.6727 72.0947
rfemur -20.5638 5.67311 14.3808
rtibia 12.4372
rfoot -7.00938 -17.1926
rtoes -8.87659
lfemur -5.27192 5.40474 -17.8466
ltibia 12.9133
lfoot -22.2992 0.585966
ltoes 18.247
5
root -12.9364 17.4572 -0.829431 -33.1787 88.6659 -39.9378
lowerback -6.02131 0.911957 3.18167
upperback 1.21111 0.989328 -0.390359
thorax 4.69825 0.58368 -2.09269
lowerneck -5.1779 -12.6034 -6.10606
upperneck 8.09104 -16.8634 5.2214
head 4.21643 -8.27486 1.53723
rclavicle 4.50061e-015 1.67103e-015
rhumerus -43.212 23.8913 -109.503
rradius 110.168
rwrist -10.0731
rhand -31.6845 5.33948
rfingers 7.12502
rthumb -4.94413 -24.5828
lclavicle 4.50061e-015 1.67103e-015
lhumerus -34.8999 -48.4447 104.048
lradius 111.846
lwrist 21.2264
lhand -4.5515 43.3159
lfingers 7.12502
lthumb 21.2243 72.174
rfemur -21.0089 5.18687 13.7929
rtibia 13.1827
rfoot -7.98328 -17.0852
rtoes -6.683
lfemur -4.84657 5.82069 -18.5906
ltibia 12.0588
lfoot -22.0212 0.37315
ltoes 18.7421
6
root -13.0162 17.4525 -0.874091 -5.27141 88.6331 -11.7195
lowerback -5.59759 0.873162 2.46857
upperback 1.33022 1.01013 -0.564878
thorax 4.57264 0.576605 -1.87523
lowerneck -2.58953 -11.907 -5.83867
upperneck 4.27994 -15.9426 5.59465
head 2.83805 -7.90517 2.16003
rclavicle 6.83012e-015 2.60905e-015
rhumerus -43.1065 23.8026 -109.449
rradius 109.901
rwrist -10.1753
rhand -31.6236 4.81347
rfingers 7.12502
rthumb -4.88528 -25.1102
lclavicle 6.83012e-015 2.60905e-015
lhumerus -34.7637 -47.8395 103.587
lradius 111.821
lwrist 21.0764
lhand -2.82534 43.5442
lfingers 7.12502
lthumb 22.8816 72.2067
rfemur -21.2636 4.55067 13.17
rtibia 13.9352
rfoot -9.54805 -17.3802
rtoes -2.51382
lfemur -4.3587 5.98326 -19.4345
ltibia 11.2561
lfoot -21.7103 0.256866
ltoes 18.5854
